<svg width="21" height="21" viewBox="0 0 21 21" fill="none" xmlns="http://www.w3.org/2000/svg">
<g clip-path="url(#clip0_6623_58065)">
<path d="M2.02051 4.99219H19.3545C19.8145 4.99236 20.1873 5.36522 20.1875 5.8252V15.1592C20.1874 15.6191 19.8145 15.992 19.3545 15.9922H2.02051C1.56054 15.992 1.18765 15.6191 1.1875 15.1592V5.8252C1.18768 5.36522 1.56053 4.99236 2.02051 4.99219ZM1.52051 15.6592H19.8545V5.3252H1.52051V15.6592ZM10.6875 12.9922H17.3545C17.4464 12.9924 17.5205 13.0673 17.5205 13.1592C17.5203 13.2509 17.4462 13.325 17.3545 13.3252H10.6875C10.5956 13.3252 10.5207 13.251 10.5205 13.1592C10.5205 13.0671 10.5955 12.9922 10.6875 12.9922ZM8.1875 7.65918V13.3252H3.85449V7.65918H8.1875ZM10.6875 10.3252H14.6875C14.7795 10.3252 14.8545 10.4002 14.8545 10.4922C14.8544 10.5842 14.7795 10.6592 14.6875 10.6592H10.6875C10.5955 10.6592 10.5206 10.5842 10.5205 10.4922C10.5205 10.4001 10.5955 10.3252 10.6875 10.3252ZM10.6875 7.65918H16.0205C16.1124 7.65918 16.1874 7.73329 16.1875 7.8252C16.1875 7.91721 16.1125 7.99219 16.0205 7.99219H10.6875C10.5955 7.99219 10.5205 7.91724 10.5205 7.8252C10.5206 7.73326 10.5955 7.65918 10.6875 7.65918Z" fill="#2563EB" stroke="#2563EB"/>
</g>
<defs>
<clipPath id="clip0_6623_58065">
<rect width="20" height="20" fill="white" transform="translate(0.6875 0.492188)"/>
</clipPath>
</defs>
</svg>
