<svg width="42" height="42" viewBox="0 0 42 42" fill="none" xmlns="http://www.w3.org/2000/svg">
<path d="M21 42C32.598 42 42 32.598 42 21C42 9.40202 32.598 0 21 0C9.40202 0 0 9.40202 0 21C0 32.598 9.40202 42 21 42Z" fill="#725AEC"/>
<g clip-path="url(#clip0_1432_25119)">
<path d="M30.0788 11.6754V11.8011H29.8989V12.3418H29.7675V11.8011H29.5885V11.6754H30.0788ZM30.8043 11.6754V12.3418H30.6739V11.9096L30.4863 12.219H30.4711L30.2835 11.9105V12.3418H30.1522V11.6754H30.2874L30.4787 11.9905L30.6691 11.6754H30.8043Z" fill="white"/>
<path d="M25.6468 29.8956H30.4667L26.4324 25.7642C29.3808 24.5357 31.2645 21.6207 31.1553 18.4842C31.0704 16.1304 29.8722 13.9676 27.9824 12.6087C27.1544 12.0111 26.1837 11.638 25.1706 11.5015C25.1645 11.5015 25.1584 11.5015 25.1554 11.4985C24.388 11.3984 23.8025 11.4014 23.5811 11.4045C22.4922 11.4075 19.7804 11.3984 15.0211 11.4045L10.2012 21.7299H14.5358C13.5196 24.5175 12.5004 27.3051 11.4812 30.0897C15.3184 26.2889 19.1525 22.4852 22.9896 18.6814H16.104C16.7258 17.4013 17.3507 16.1243 17.9725 14.8443H23.9542C24.212 14.8352 24.5851 14.8503 25.0128 14.9626C25.7954 15.1688 26.299 15.5783 26.4324 15.6936C26.578 15.8179 27.1665 16.3427 27.4789 17.2648C27.5578 17.4954 27.8702 18.4933 27.4789 19.6217C27.2939 20.1526 27.0118 20.5135 26.4324 21.193C26.1989 21.469 25.8349 21.8724 24.6003 23.0251C23.6327 23.929 23.3324 24.1687 22.5346 24.9422C22.1342 25.3304 21.8157 25.655 21.6125 25.8643C22.9563 27.208 24.3 28.5518 25.6468 29.8956Z" fill="white"/>
</g>
<defs>
<clipPath id="clip0_1432_25119">
<rect width="21.6397" height="18.6913" fill="white" transform="translate(10.2012 11.4004)"/>
</clipPath>
</defs>
</svg>
